# xmcd
#
# Track frame offsets:
#	150
#	13354
#	26178
#	38698
#	51445
#	65801
#	79653
#	91261
#	105066
#	118660
#	131384
#	143447
#	155578
#	167288
#	178854
#	191386
#	205748
#	218892
#	231094
#	244358
#
# Disc length: 3407 seconds
#
# Revision: 0
# Processed by: cddbd v1.5.2PL0 Copyright (c) Steve Scherf et al.
# Submitted via: dBpowerAMP V4.0
#
DISCID=0e0d4d14
DTITLE=Various Artist - Cajun Hot Stuff
DYEAR=1900
DGENRE=Other
TTITLE0=Mama, Where Are You At? - Leo Soileau and Mayuse Lafleur
TTITLE1=Saute Crapaud! - Columbus Fruge
TTITLE2=Quelqu'un Est Jaloux - Delin T. Guillory and Lewis Lafleur
TTITLE3=Stop That - Delin T. Guillory and Lewis Lafleur
TTITLE4=Belle Of Point Clare - Arteleus Mistric
TTITLE5=O'Bebe! - Oscar Doucet and Alius Soileau
TTITLE6=L'Abandoner - Berthemost Montet and Joswell Dupuis
TTITLE7=Lonesome Blues - Floyd Shreve and The Three Aces
TTITLE8=Alberta - Lawrence Walker
TTITLE9=Mon Vieux D'Autrefois - Falcon Trio
TTITLE10=Jolie Blonde - Hackberry Ramblers
TTITLE11=Lake Arthur Stomp - Millers Merrymakers
TTITLE12=Valse De Marie Buller - Rayne-Bo Ramblers
TTITLE13=Et La Bas - Hackberry Ramblers
TTITLE14=Two-Step A'Erby - Thibodeaux Boys
TTITLE15=La Response De Blues De Bosco - Happy Fats and His Rayne-Bo Ramblers
TTITLE16=Crap Shooters Hop - Joe Werner and Ramblers
TTITLE17=Ma Chere Bouclette - JB Fuselier and His Merrymakers
TTITLE18=Je Va T'Aimer Quand-Meme - Hackberry Ramblers
TTITLE19=La Veuve De La Coulee - Happy Fats and His Rayne-Bo Ramblers
EXTD=
EXTT0=
EXTT1=
EXTT2=
EXTT3=
EXTT4=
EXTT5=
EXTT6=
EXTT7=
EXTT8=
EXTT9=
EXTT10=
EXTT11=
EXTT12=
EXTT13=
EXTT14=
EXTT15=
EXTT16=
EXTT17=
EXTT18=
EXTT19=
PLAYORDER=
